<svg height="512pt" viewBox="0 -56 512 512" width="512pt" xmlns="http://www.w3.org/2000/svg"><path d="m194.445312 100.429688c2.9375 2.9375 6.785157 4.402343 10.636719 4.402343 3.847657 0 7.695313-1.464843 10.632813-4.402343 5.875-5.875 5.875-15.398438 0-21.273438l-15.921875-15.917969c-5.871094-5.875-15.394531-5.875-21.269531 0s-5.875 15.394531 0 21.269531zm0 0"/><path d="m430.003906 104.832031c3.851563 0 7.699219-1.46875 10.636719-4.402343l15.921875-15.921876c5.875-5.875 5.875-15.398437 0-21.269531-5.871094-5.875-15.398438-5.875-21.273438-.003906l-15.917968 15.921875c-5.875 5.875-5.875 15.398438 0 21.269531 2.933594 2.941407 6.785156 4.40625 10.632812 4.40625zm0 0"/><path d="m473.382812 212.898438h22.519532c8.304687 0 15.039062-6.734376 15.039062-15.042969 0-8.304688-6.734375-15.039063-15.039062-15.039063h-22.519532c-8.304687 0-15.039062 6.734375-15.039062 15.039063 0 8.308593 6.734375 15.042969 15.039062 15.042969zm0 0"/><path d="m313.085938 52.597656c8.304687 0 15.039062-6.734375 15.039062-15.042968v-22.515626c0-8.304687-6.734375-15.039062-15.039062-15.039062-8.308594 0-15.042969 6.734375-15.042969 15.039062v22.519532c0 8.304687 6.734375 15.039062 15.042969 15.039062zm0 0"/><path d="m246.15625 151.691406c13.757812-4.785156 28.285156-7.257812 42.972656-7.257812 23.9375 0 47.394532 6.570312 67.835938 19.007812 12.675781 7.707032 23.855468 17.457032 33.101562 28.777344 6.804688-1.375 13.753906-2.078125 20.707032-2.078125 5.898437 0 11.683593.496094 17.316406 1.4375-3.273438-60.597656-53.601563-108.898437-115.003906-108.898437-38.554688 0-72.742188 19.042968-93.65625 48.214843 9.628906 5.894531 18.609374 12.855469 26.726562 20.796875zm0 0"/><path d="m483.234375 305.179688c.707031-4.0625 1.0625-8.191407 1.0625-12.375 0-40.023438-32.980469-72.582032-73.523437-72.582032-11.601563 0-22.863282 2.671875-33.007813 7.714844-16.78125-32.226562-50.824219-53.421875-88.636719-53.421875-18.019531 0-35.605468 4.832031-50.917968 13.824219-22.605469-31.125-59.035157-49.875-98.597657-49.875-66.898437 0-121.324219 53.65625-121.324219 119.613281 0 16.460937 3.398438 32.5625 9.933594 47.453125-16.707031 8.261719-28.222656 25.359375-28.222656 44.996094 0 27.726562 22.816406 50.285156 50.859375 50.285156h410.28125c28.042969 0 50.859375-22.558594 50.859375-50.285156 0-19.953125-11.578125-37.230469-28.765625-45.347656zm0 0"/></svg>