<svg id="Capa_1" enable-background="new 0 0 512 512" height="512" viewBox="0 0 512 512" width="512" xmlns="http://www.w3.org/2000/svg"><g><path d="m301.572 450.462c-7.666-3.142-16.427.526-19.568 8.191l-13.383 32.655c-3.142 7.666.526 16.426 8.191 19.568h.001c7.665 3.141 16.426-.526 19.567-8.191l13.383-32.655c3.142-7.666-.526-16.426-8.191-19.568z"/><path d="m51.572 450.462c-7.666-3.142-16.427.526-19.568 8.191l-13.384 32.655c-3.142 7.666.526 16.426 8.191 19.568h.001c7.665 3.141 16.426-.526 19.567-8.191l13.383-32.655c3.143-7.666-.525-16.426-8.19-19.568z"/><path d="m134.906 450.462c-7.665-3.142-16.426.526-19.568 8.191l-13.384 32.655c-3.142 7.665.525 16.426 8.191 19.568 7.665 3.142 16.426-.526 19.568-8.191l13.384-32.655c3.142-7.665-.526-16.426-8.191-19.568z"/><path d="m218.239 450.462c-7.666-3.142-16.427.526-19.568 8.191l-13.383 32.655c-3.142 7.666.526 16.426 8.191 19.568h.001c7.665 3.141 16.426-.526 19.567-8.191l13.383-32.655c3.142-7.666-.526-16.426-8.191-19.568z"/><path d="m357 70c-23.534 0-45.486 9.703-61.227 26.047 36.009 23.323 62.277 60.532 71.046 104.303 14.885 4.771 28.657 12.628 40.447 23.139 21.045-15.487 34.734-40.415 34.734-68.489 0-46.869-38.131-85-85-85z"/><path d="m339.808 225.321c-3.741-69.737-61.656-125.321-132.308-125.321-70.653 0-128.567 55.584-132.308 125.321-42.08 3.711-75.192 39.151-75.192 82.179 0 38.155 26.041 70.331 61.279 79.72l-6.042 14.742c-3.142 7.666.526 16.426 8.191 19.568h.001c7.665 3.141 16.426-.526 19.567-8.191l9.566-23.339h50.911l-4.902 11.962c-3.142 7.666.526 16.426 8.191 19.568h.001c7.665 3.141 16.426-.526 19.567-8.191l9.565-23.339h50.911l-4.903 11.962c-3.142 7.665.525 16.426 8.191 19.568 7.665 3.142 16.426-.526 19.568-8.191l9.567-23.339h50.911l-4.902 11.962c-3.142 7.666.526 16.426 8.191 19.568h.001c7.665 3.141 16.426-.526 19.567-8.191l9.84-24.01c40.626-5.104 72.163-39.841 72.163-81.829 0-43.028-33.112-78.468-75.192-82.179z"/><path d="m497 140h-20c-8.284 0-15 6.716-15 15s6.716 15 15 15h20c8.284 0 15-6.716 15-15s-6.716-15-15-15z"/><path d="m431.247 80.754c5.858 5.858 15.355 5.858 21.213 0l14.143-14.142c5.858-5.858 5.858-15.355 0-21.213-5.858-5.858-15.355-5.858-21.213 0l-14.144 14.141c-5.858 5.858-5.858 15.356.001 21.214z"/><path d="m357 50c8.284 0 15-6.716 15-15v-20c0-8.284-6.716-15-15-15s-15 6.716-15 15v20c0 8.284 6.716 15 15 15z"/><path d="m261.54 80.754c5.858 5.858 15.355 5.858 21.213 0 5.858-5.858 5.858-15.355 0-21.213l-14.142-14.142c-5.858-5.858-15.355-5.858-21.213 0-5.858 5.858-5.858 15.355 0 21.213z"/><path d="m452.459 229.246c-5.858-5.858-15.355-5.858-21.213 0-5.858 5.858-5.858 15.355 0 21.213l14.143 14.142c5.858 5.858 15.355 5.858 21.213 0 5.858-5.858 5.858-15.355 0-21.213z"/></g></svg>